<svg id="svg" xmlns="http://www.w3.org/2000/svg" viewBox="0 0 382.7 87.45"><defs><style>.cls-1{fill:#26ccc4;}.cls-1,.cls-2{fill-rule:evenodd;}.cls-2{fill:#2cc40c;}</style></defs><title>logo_horiz</title><g id="svgg"><path id="path0" class="cls-1" d="M-477.61-.32c3.47,0,9.09,0,12.5,0s.57,0-6.31,0-9.66,0-6.19,0m-12.77.16a2.36,2.36,0,0,0,.75,0c.21,0,0-.07-.37-.07s-.58,0-.38.07m30.29,8.93-.49.54.54-.49a4,4,0,0,0,.54-.54c0-.13-.14,0-.59.49m-53.67.83-.49.54.54-.49c.51-.45.62-.59.49-.59a4,4,0,0,0-.54.54M-515,10.68l-.57.63.62-.58a4.87,4.87,0,0,0,.63-.62c0-.13-.14,0-.68.57M-472.47,12c.8,0,2.15,0,3,0s.2-.06-1.45-.06-2.34,0-1.55.06m-12.9.16c.76,0,2,0,2.67,0s.08,0-1.38,0-2.05,0-1.29,0m-5,.16a1.83,1.83,0,0,0,.66,0c.16,0,0-.07-.37-.07s-.5,0-.29.07m-27.22.93-.66.71.71-.66c.66-.62.78-.76.66-.76a6.79,6.79,0,0,0-.71.71M-507,20l-.57.62.62-.57a6.44,6.44,0,0,0,.63-.63c0-.12-.14,0-.68.58m-1.91,1.91-.66.71.7-.66a6.79,6.79,0,0,0,.71-.71c0-.12-.14,0-.75.66m75.39.78c-2.14.13-2,0-2.11,3.27l-.05,2.75h.8c1.14,0,1.48.13,1.75.63s.47,22.87.26,22.87c0,0-.5.07-1.05.17-1.75.31-1.58,0-1.53,3.21l0,2.87h12.84l0-2.87c.05-3.21.17-2.92-1.29-3.13-.42-.06-.88-.15-1.05-.19-.35-.1-.45-20.78-.11-22.39.22-1,.27-1,1.56-1.16l1-.1v-2.7a8.87,8.87,0,0,0-.2-2.9c-.41-.42-6.46-.6-10.91-.33m-52.5,2c.57,0,1.47,0,2,0s0-.06-1.05-.06-1.53,0-.95.06m14.82,0a12.78,12.78,0,0,0,1.75,0c.48,0,.09-.06-.87-.06s-1.36,0-.88.06m164.71,2.53c-1.8.2-1.83.26-1.83,3.63,0,2.53-.42,3.21-2.27,3.7-1.24.33-1.69,1.52-1.44,3.77l.12,1.15.67.12c.37.07,1.16.17,1.76.23l1.1.1.11,5.78c.11,5.59.32,8.92.6,9.28a2.25,2.25,0,0,1,.25.65c.72,3,7.78,5,11.64,3.3a9.57,9.57,0,0,1,1.11-.44l.4-.13-.11-2.26c-.13-2.72,0-2.51-2.27-2.7-3.07-.25-4-.78-4.29-2.4a1.45,1.45,0,0,0-.24-.7,49.36,49.36,0,0,1-.14-5.22V39.94l1.37-.11c.76,0,2-.1,2.85-.1,2.67,0,2.85-.24,2.75-3.56-.08-2.71-.14-2.75-4.57-2.77h-2.35l-.1-2.71c-.1-2.79-.16-3.21-.52-3.34a23.47,23.47,0,0,0-4.6-.13m-192.18,2.14-.57.63.62-.58c.59-.53.71-.67.58-.67a5.75,5.75,0,0,0-.63.62m145.76,3.77c-.55.21-1.2.48-1.44.61l-1.17.63c-6.17,3.28-8.65,11.45-5.46,18a5,5,0,0,0,.83,1.38c.09,0,.16.1.16.22,0,.57,2.93,2.95,4.87,4,3.21,1.68,8.82,2.16,11.55,1,.18-.08.91-.34,1.62-.59,2.9-1,3.25-2,1.58-4.44-1-1.48-1.61-1.69-3.17-1.07A10.93,10.93,0,0,1-354,51.12c-1.41-1.28-1.39-1.28,7.84-1.4,9.38-.12,8.93,0,9.44-1.93.79-3-.81-7.81-3.6-10.79-3.24-3.49-8.9-5.23-12.59-3.88m27.57-.32a6.2,6.2,0,0,1-1.08.35c-4.64,1.2-7.45,6.77-5.43,10.76a7.24,7.24,0,0,0,3.73,3.58l1.58.66a9.08,9.08,0,0,0,2.86.58c1.68,0,3.27,1.49,3,2.74-.54,2.13-3.82,2.56-6.27.84-1.3-.92-1.14-.92-2.94,0-3.16,1.64-3.28,2-1.27,4,1.24,1.24,3,2.38,3.77,2.38.15,0,.27.06.27.13,0,.71,6,.73,7.33,0,.14-.08.7-.31,1.23-.51,8.59-3.29,5.87-13.94-3.82-15-2.81-.3-4.1-1.86-2.88-3.51s2.5-1.5,4.87.05c1.1.73,1.12.72,3.19,0s2.08-.77,2.08-1.55c0-1.85-2.74-4.44-5.58-5.26a16.44,16.44,0,0,0-4.6-.32m55.1.19c-.46.14-1.21.34-1.67.46a13.09,13.09,0,0,0-4.94,3.91c-.12.25-.42.79-.67,1.2-1.71,2.92-2.29,8.51-1.14,11.25,3,7.17,10,9.86,16.83,6.4,1.54-.78,2.17-.83,2.17-.18a7.27,7.27,0,0,1-.49,2.36,2.64,2.64,0,0,0-.33.64c-1.64,4-9.24,5.7-13.81,3-1.55-.91-2,.06-1.64,3.51l.2,1.91,1.66.64a13.33,13.33,0,0,0,5.67,1.23c8.93.38,13.8-2.9,15-10.11.59-3.59.75-25.18.18-25.54a16.57,16.57,0,0,0-2.72-.13h-2.52l-.69.75-.7.76-1-.45a8.86,8.86,0,0,1-1.31-.68c-1-.87-6.23-1.48-8.06-.95m33.71-.17a5.09,5.09,0,0,1-1,.43A9.73,9.73,0,0,0-241,35.67a6,6,0,0,1-1,.89,3.34,3.34,0,0,1-.69-1.55,2.54,2.54,0,0,0-.58-1.32,28.24,28.24,0,0,0-5.66,0l-.42.16V58.37l.7.1c.4.06,1.95.08,3.46.06l2.75-.05.12-4.34c.3-10.57.31-10.65,1.82-12.2s3.42-2.21,6.7-2.21c2.48,0,2.8-.49,2.85-4.34,0-1.58-.12-1.91-.91-2.23a15.36,15.36,0,0,0-4.7-.34m17.52,0a9.12,9.12,0,0,1-1.37.42c-11.49,2.94-12.31,21.31-1.14,25.31a4.23,4.23,0,0,1,.86.37c.69.77,6.46.76,8.25,0a13.37,13.37,0,0,0,6.27-4.76c4.66-6.3,2.37-16.69-4.36-19.82-.31-.14-.8-.39-1.07-.53-1.37-.74-6.95-1.46-7.44-1m56.35.41a16.34,16.34,0,0,0-2,.9c-1.06.63-2.17.62-2.63,0s-5.46-1.06-6-.52c-.3.3-.29,34.56,0,34.74a25.91,25.91,0,0,0,5.37.15l1.25-.12V64.42c0-4.17.17-6.44.46-6.73.13-.13.74,0,2.15.58,3,1.14,3.14,1.19,5.22,1.2,1.75,0,3.83-.3,3.83-.57a1.84,1.84,0,0,1,.76-.32c2.3-.69,5.19-3.46,6.5-6.25,2-4.21,1.41-11.45-1.08-14.13a1.54,1.54,0,0,1-.35-.5c0-.51-2.21-2.49-3.91-3.5a13.09,13.09,0,0,0-9.59-1m-255.46.32c-.16.11-.2,2.74-.16,12.61l0,12.49,3.17-.05a21.88,21.88,0,0,0,3.34-.2c.13-.1.22-2.41.29-7.05.13-8,.24-9.14,1-10.06,1.95-2.27,6.59-1.87,7.72.68.25.58.52,6.79.53,12.3,0,2.94.06,4,.21,4.11a17.88,17.88,0,0,0,3.38.22l3.16.05.05-9,0-9-.84-1.64c-2.21-4.31-8.49-6.88-12.17-5a24.79,24.79,0,0,1-2.81,1.08,4.15,4.15,0,0,1-.83-.7,2.21,2.21,0,0,0-1.9-.83,17.77,17.77,0,0,0-4.25,0m26.71,0a6.21,6.21,0,0,0-1.54.23c-.22.14-.29.78-.08.78s.22.31.34.7.4,1.08.6,1.54.56,1.25.76,1.76.55,1.29.75,1.75.47,1.13.59,1.5a7.41,7.41,0,0,0,.42,1.08c.12.23.65,1.54,1.17,2.92,1.08,2.81,1.23,3.17,1.72,4.29a6.49,6.49,0,0,1,.36.88,6.43,6.43,0,0,0,.39,1c.22.48.52,1.18.66,1.57s.42,1,.6,1.42.49,1.12.69,1.63.47,1.16.61,1.47l.26.55,4.3,0c4.71-.06,5.16-.16,5.29-1.15a9.6,9.6,0,0,1,1-2.65,12.66,12.66,0,0,0,1-2.34,13.63,13.63,0,0,1,.91-2.33,4.61,4.61,0,0,0,.41-.92c.16-.46.47-1.21.68-1.66s.77-1.85,1.25-3.09,1.09-2.74,1.37-3.33.64-1.5.83-2a7.84,7.84,0,0,1,.46-1.08,13.51,13.51,0,0,0,.58-1.59c.25-.78.53-1.55.61-1.7.53-1,.22-1.14-3.83-1.18-2.43,0-2.92,0-3,.22a9.54,9.54,0,0,0-1,2.41,1,1,0,0,1-.14.51,4.75,4.75,0,0,0-.44,1c-.17.46-.47,1.21-.67,1.67s-.46,1.09-.58,1.42c-.25.7-.39,1.06-.72,1.83-.14.32-.43,1.11-.64,1.75a9.32,9.32,0,0,1-.49,1.25,11.43,11.43,0,0,0-.59,1.5,6.59,6.59,0,0,1-.61,1.47c-.07,0-.12.16-.12.3a5.76,5.76,0,0,1-1.22,2.4c-.37,0-.75-.53-1.21-1.68-.57-1.45-.61-1.56-1.23-3a14.15,14.15,0,0,1-.63-1.67c0-.23-.48-1.43-1-2.66s-1.24-3.15-1.66-4.25-.87-2.23-1-2.5-.32-.77-.44-1.09c-.36-1-.36-1-2.47-1-1.06,0-2.53.07-3.27.13m210.31,0a22.53,22.53,0,0,0-3,.2c-.06.06-.18,2.94-.26,6.41-.23,9.26-.33,9.93-1.61,11.06-1.72,1.52-5.1,1.56-6.64.09-.91-.86-1.06-2.47-1.07-11.37,0-7.19.47-6.38-3.74-6.38h-3.08l-.18.62c-.43,1.56-.09,15.74.43,17.88,1.34,5.51,8.19,8.14,14.26,5.49,1.14-.51,1.64-.61,1.64-.34a2.43,2.43,0,0,0,.56.75l.56.6h5.71l0-12.54c0-12.42-.05-12.54-.38-12.56l-3.19.09M-478.78,37c1.45,0,3.77,0,5.17,0s.2-.05-2.64-.05-4,0-2.53.05m-8.51.16a3.47,3.47,0,0,0,.91,0c.26,0,.05-.07-.45-.07s-.71,0-.46.07M-347.79,39c1.91.69,4.53,3.52,3.88,4.17-.15.15-11.19.15-11.35,0-1.06-1.06,3.33-4.45,5.76-4.45a6.37,6.37,0,0,1,1.71.28m133.34.35c4,2,5.24,7.65,2.48,11.6a5.27,5.27,0,0,1-.8,1,2.9,2.9,0,0,0-.47.38c-2,2-7,1-8.44-1.71a2.33,2.33,0,0,0-.34-.55c-.59-.46-1-4-.58-5.55,1.11-4.7,4.61-6.91,8.15-5.14m-241.66,1c0,.78,0,1.1.07.71a11.21,11.21,0,0,0,0-1.42c0-.39-.07-.07-.07.71m297.61-.57c4.54,1,7.06,7,4.4,10.41-4.42,5.66-12.4,3.19-12.4-3.84a6.42,6.42,0,0,1,8-6.57M-264.23,40a5.83,5.83,0,0,1,.76,11c-6,2.45-11.5-3.65-7.82-8.72a4.31,4.31,0,0,1,.75-.88A1.69,1.69,0,0,0-270,41a6.79,6.79,0,0,1,5.77-1m-253,3.42c0,.78,0,1.1.06.71a11.21,11.21,0,0,0,0-1.42c0-.39-.06-.07-.06.71m12.31-.08c0,.37,0,.5.08.29a1.88,1.88,0,0,0,0-.67c-.05-.16-.08,0-.08.38m48.79,11.08v7.67h-12l0,2.12c0,1.17.06,1.88.09,1.59l.07-.54h12V56c0-5.09,0-9.25-.08-9.25s-.09,3.45-.09,7.66m-34.91-6.66a4.77,4.77,0,0,0,.73.66c.05,0-.21-.3-.57-.66a4.53,4.53,0,0,0-.73-.67c-.05,0,.21.3.57.67m3,1.87a33.18,33.18,0,0,0,3.78.09c3.88,0,3.42-.1-1.11-.17a12.3,12.3,0,0,0-2.67.08m-10.72,7.71a3.89,3.89,0,0,0,.64.58c.05,0-.17-.26-.48-.58a3.89,3.89,0,0,0-.64-.58c-.05,0,.17.26.48.58m12,4.7a7.38,7.38,0,0,0,1.33,0c.34,0,0-.06-.71-.06s-1,0-.62.06m14.66.17c.67,0,1.75,0,2.42,0s.12-.06-1.21-.06-1.87,0-1.21.06m58.33.34-36.62,0V66l.62.11c.35.06,38.38.1,84.51.1h83.88l-.05-1.88,0-1.87h-47.84c-26.31,0-64.31,0-84.46.05m253.17,0a9.43,9.43,0,0,0-.12,2v1.92l.62-.11c.35,0,3.5-.1,7-.1h6.38V62.56H-153c-3.38,0-6.47-.05-6.87-.1a1.64,1.64,0,0,0-.86,0m-87.77.22a6.94,6.94,0,0,0,.08,3.35c.11.11,11.94.15,34.57.12l34.41,0,.09-.83a15.12,15.12,0,0,0,0-1.79l-.05-1h-34.45c-19.32,0-34.54.07-34.67.15m-259.44,3.18a6.65,6.65,0,0,0,.91.84,5.27,5.27,0,0,0-.74-.84,7.14,7.14,0,0,0-.9-.83,4.51,4.51,0,0,0,.73.83m-11.41,5.72a4,4,0,0,0,.54.54l.54.49-.49-.54c-.46-.5-.59-.62-.59-.49M-483,74.68c2.5,0,6.58,0,9.08,0s.46,0-4.54,0-7,0-4.54,0M-515,76a3.4,3.4,0,0,0,.65.58s-.17-.26-.48-.58a3.57,3.57,0,0,0-.65-.59s.17.26.48.59m58.71.91c0,.32,0,.45.07.29a1.42,1.42,0,0,0,0-.58c0-.16-.07,0-.07.29M-489.71,87a5.71,5.71,0,0,0,1.17,0c.34,0,.1-.06-.54-.06s-.93,0-.63.06m22.25,0a3,3,0,0,0,.84,0c.2,0,0-.07-.46-.07s-.63,0-.38.07" transform="translate(529.26 0.41)"/><path id="path1" class="cls-2" d="M-474.92-.27l-16,.09-2.5.46A42.36,42.36,0,0,0-521,17.56c-16.59,22.62-7,56.15,18.94,66.46,6.8,2.71,8.82,3,23.91,3h11.92l1.58-.56a12.34,12.34,0,0,0,8.06-8.12c.36-1.09.6-4.86.61-9.45V65.23h-12l-.1.79c-.05.43-.09,2.51-.1,4.6s0,3.87-.1,3.92c-.22.22-20.94.11-22.49-.12A31,31,0,0,1-514.18,57c-8.24-17.58.83-38.24,19.21-43.74,3.22-1,3.55-1,16.64-1.19,13.54-.2,13.42-.19,15.7-1.46a12.63,12.63,0,0,0,6.46-9.42c.25-1.53.16-1.62-1.47-1.57-.71,0-8.48.07-17.28.13m-11.16,25c-6.24.27-10.21,2-13.86,6-9.38,10.34-4.42,27.28,9,30.76,1.66.43,6.23.56,20.86.56h13.86l.07-9.71c.11-13.15,0-16.94-.58-18.71A13,13,0,0,0-466.33,25c-1.66-.31-14.55-.48-19.75-.26m17.71,12.4c.35.21.29,12.37-.06,12.5-.14.06-4.59.1-9.88.1h-9.61l-1.25-.68c-4.86-2.63-4.87-8.54,0-11.35l.94-.54,3.5-.11c4.58-.14,16.11-.08,16.38.08" transform="translate(529.26 0.41)"/></g></svg>