<?xml version="1.0" encoding="utf-8"?>
<!-- Generator: Adobe Illustrator 23.0.2, SVG Export Plug-In . SVG Version: 6.00 Build 0)  -->
<svg version="1.1" id="svg" xmlns="http://www.w3.org/2000/svg" xmlns:xlink="http://www.w3.org/1999/xlink" x="0px" y="0px"
	 viewBox="0 0 400 440.4" style="enable-background:new 0 0 400 440.4;" xml:space="preserve">
<style type="text/css">
	.st0{fill-rule:evenodd;clip-rule:evenodd;fill:#2EC40E;}
	.st1{fill-rule:evenodd;clip-rule:evenodd;fill:#24CEC6;}
	.st2{fill-rule:evenodd;clip-rule:evenodd;fill:#ABE79C;}
	.st3{fill-rule:evenodd;clip-rule:evenodd;fill:#A6EBE9;}
</style>
<g id="svgg">
	<path id="path0" class="st0" d="M-210-21.3c-0.1,0.1-3.2,0.4-7,0.6c-5.9,0.4-9.7,0.9-19.7,2.4c-1.1,0.2-2.2,0.4-2.4,0.6
		c-0.2,0.1-2.1,0.6-4.3,1.1c-2.2,0.5-4.3,1-4.8,1.2s-2.7,0.9-5,1.6c-3.8,1.1-5.6,1.7-8.2,2.8c-6.6,2.7-11,4.6-13.7,5.9
		c-1.8,0.9-3.4,1.6-3.6,1.6c-0.1,0-0.5,0.2-0.9,0.6c-0.3,0.3-1.7,1.1-3,1.8c-3.5,1.8-13.9,8.5-14.6,9.2c-0.1,0.1-2.1,1.7-4.4,3.4
		s-4.4,3.4-4.6,3.6c-0.2,0.2-1.6,1.4-3,2.6c-4.9,4.2-14.3,13.8-18.1,18.6c-1.1,1.3-2.5,3.1-3.2,4c-0.7,0.8-2.3,3-3.6,4.8
		c-1.3,1.8-2.5,3.5-2.8,3.9c-0.3,0.3-0.7,1-1,1.4c-3.8,6.2-5.2,8.5-5.5,9c-0.2,0.3-0.7,1.4-1.3,2.4c-1.3,2.3-5,9.7-6,11.8
		c-0.4,0.9-1,2.2-1.3,3c-1.3,2.9-1.7,3.9-3.2,8.2c-3.7,10.3-5.8,18.5-7.8,30c-1.5,8.9-1.7,11.2-1.7,26.6c0,15.3,0.2,19.1,1.6,26.8
		c0.3,1.6,0.7,4.3,1,5.8c0.3,1.5,0.7,3.6,1,4.7c0.3,1,0.6,2.1,0.6,2.5c0,0.6,0.1,1.1,3,10.7c1,3.4,2,6.4,2.2,6.6s0.6,1.3,1,2.4
		c2.1,5.9,7.9,18.4,10.7,22.8c0.6,0.9,1.1,1.8,1.2,2c0.9,2.3,9.8,15,15.3,21.9c3.6,4.5,17.1,17.7,22,21.6c2.4,1.9,4.9,3.9,5.6,4.4
		c0.7,0.5,2.9,2.1,5,3.5c2.1,1.4,3.9,2.7,4,2.8c0.4,0.4,1.8,1.2,2.7,1.6c0.5,0.2,1.6,0.8,2.4,1.4c4,2.6,16.2,8.7,20.5,10.3
		c0.8,0.3,1.9,0.7,2.6,1c1.6,0.7,4.3,1.7,7.2,2.5c1.3,0.4,2.9,0.9,3.4,1.1c5.7,2.3,20.3,5.1,33.4,6.3c9.2,0.9,82.4,0.9,87.2,0
		c15.4-2.7,26.8-11,33.7-24.4c4.7-9.2,5.1-11.6,5.2-35.9l0.1-20.3h-22.4h-22.4v17.2c0,16.6,0,17.2-0.8,17.6c-1,0.5-70.6,0.6-78,0
		c-11.2-0.8-21.7-3.4-33.8-8.3c-6.7-2.7-19.2-9.9-24-13.7c-0.2-0.2-1.5-1.2-2.8-2.2c-7.3-5.8-13.7-12.3-20-20.5c-2.3-3-7-9.8-7-10.3
		c0-0.2-0.3-0.6-0.6-0.9c-0.8-0.9-7.4-14.1-7.4-14.8c0-0.3-0.2-1-0.5-1.4c-0.3-0.4-1.1-2.6-1.8-4.8c-0.7-2.2-1.4-4.4-1.6-4.8
		c-0.3-0.7-1.4-5-3.2-13c-0.2-1-0.6-3.6-0.8-5.8c-0.2-2.2-0.5-5.4-0.8-7c-0.5-3.9-0.5-14.1,0-18c0.2-1.6,0.6-4.7,0.8-6.8
		c0.2-2.1,0.8-5.5,1.2-7.6c0.5-2.1,1-4.4,1.2-5.2c0.9-4,4.2-14.1,5-15.5c0.3-0.5,0.6-1.2,0.6-1.5c0-1.5,9.8-19.7,10.9-20.1
		c0.2-0.1,0.3-0.3,0.3-0.5c0-0.4,5-7.3,6.6-9.2c5.4-6.2,8.1-9,12-12.4c1.3-1.2,2.9-2.5,3.4-3c6.7-6,20.4-14.2,29.8-17.8
		c1.8-0.7,3.6-1.4,4-1.6c0.9-0.4,8-2.6,11.2-3.4c3.1-0.8,8.6-1.9,14-2.6c1.6-0.2,20.7-0.5,45.8-0.7c28.3-0.2,43.5-0.5,44.6-0.7
		c6.1-1.6,8.1-2.4,12-4.4c4.8-2.5,12.5-9,15-12.8c0.5-0.8,1.1-1.6,1.2-1.7c0.6-0.5,4.8-8.3,4.8-8.9c0-0.2,0.3-0.9,0.6-1.6
		c1.4-3.1,3.3-13.1,2.9-14.9l-0.3-1h-58.7C-183.4-21.4-209.9-21.4-210-21.3 M-211.6,72.4c-9.1,1-12.7,1.9-20.2,5
		c-3.4,1.4-5.2,2.3-8.5,4.3c-1.2,0.7-2.3,1.3-2.5,1.3s-0.4,0.1-0.5,0.3c-0.1,0.2-1.6,1.4-3.3,2.7c-8.2,6.2-15.9,15.7-20.5,25.3
		c-2.7,5.7-3.9,9.3-5.9,19c-4.9,23.1,7.4,53.7,27,67.5c5.8,4,12.3,7.6,15.8,8.7c0.9,0.3,2.1,0.7,2.8,1c8.8,3.6,11.6,3.8,78,3.9
		l57.2,0.1v-48c0-50.6,0-49.4-1.8-56.2c-2.8-10.4-9.3-19.8-18-26.2c-3.4-2.5-10.4-6.2-11.7-6.2c-0.4,0-0.8-0.2-0.9-0.4
		c-0.3-0.5-5.4-1.6-10.8-2.2C-142,71.5-204,71.6-211.6,72.4 M-138,118.3l1,0.5l0.1,22.6c0.1,20.7,0,22.6-0.6,23.3
		c-0.7,0.7-1.9,0.7-36.9,0.6l-36.2-0.1l-2.8-1.1c-21.4-8.6-20.9-35.7,0.8-45.1C-209.9,117.8-140.2,117.2-138,118.3"/>
	<path id="path1" class="st1" d="M-114.7,211.7l-22.5,0.1l0.2,0.9c0.1,0.5,0.2,3.1,0.2,5.8l0,4.9h22.4H-92v-6c0-3.3,0-6-0.1-5.9
		C-92.2,211.5-102.3,211.6-114.7,211.7 M-391.9,349.2c-0.9,0.2-0.9,0.4-0.9,3.7v3.6h1.4c2.3,0,2.3-0.2,2.2,15.2l-0.1,14.2l-1.6,0.2
		l-1.6,0.2v3.6v3.6h8h8V390v-3.6l-1.6-0.2l-1.6-0.2l-0.1-14.2c-0.1-15.4-0.1-15.2,2.2-15.2h1.4V353c0-3.3-0.1-3.6-0.9-3.8
		C-378.3,348.9-390.5,349-391.9,349.2 M-233.5,354.8c-0.9,0.2-0.9,0.4-0.9,3.7c0,3.9-0.5,4.7-3.3,5.3c-1.2,0.3-1.7,1.7-1.4,4.5
		l0.1,1.6l2.2,0.2l2.2,0.2l0.2,9c0.2,9.8,0.5,10.9,3,13.1c2.9,2.5,8.8,3.2,12.7,1.5l1.5-0.6l-0.1-2.9l-0.1-2.9l-2.8-0.2
		c-5.3-0.4-5.9-1.4-5.7-10.5l0.1-6.5l3.4-0.1c5.5-0.2,5.2,0,5.2-3.9c0-3.9,0.3-3.7-5.2-3.9l-3.4-0.1l-0.1-3.7
		c-0.1-3.4-0.2-3.7-1-3.9C-227.9,354.6-232.1,354.6-233.5,354.8 M-288,361.6c-1.5,0.2-1.9,0.3-5,1.8c-9.2,4.3-11.9,17.9-5.1,25.4
		c5.7,6.3,14.6,7.9,22.7,4.1c2.7-1.2,2.8-1.6,1.4-4.2c-1.4-2.6-2.6-3.1-4.8-1.9c-3.1,1.6-9.3,0.6-12.4-2.1c-2.4-2-1.8-2.1,9.7-2.1
		c11.8,0,11.2,0.1,11.6-3C-268.5,369.9-278,360.5-288,361.6 M-255.6,361.7c-9,1.8-12.4,12.4-5.5,17.1c1.8,1.2,5.4,2.6,6.8,2.6
		c3.5,0,5.6,2.6,3.7,4.6c-1.8,2-4.5,2-7,0.2l-1.7-1.2l-2.7,1.4c-3.2,1.7-3.3,2.1-1.4,4.3c7.9,8.8,24.7,2.7,22.2-8
		c-0.9-3.8-6.3-7.6-10.6-7.6c-3.9,0-5.8-3.1-3.2-5.3c1.3-1.1,3.1-0.9,5,0.5c1.7,1.2,1.7,1.2,3.2,0.6c0.8-0.3,2-0.7,2.6-0.9
		c1.5-0.3,1.7-1.2,0.8-2.9C-245.5,363.3-251,360.8-255.6,361.7 M-186.2,361.7c-0.9,0.1-1.8,0.3-2,0.5c-0.2,0.2-0.7,0.4-1.1,0.4
		c-0.9,0-2.9,1.3-5,3.5c-5.7,5.8-5.6,16.6,0.1,22.3c4.5,4.4,10.9,5.5,16.6,2.7c2.5-1.2,3.6-1.5,3.6-1.1c0,8.4-9.5,12.5-18.6,8
		c-1.6-0.8-1.9-0.3-1.8,3.4l0.1,3.3l1.8,0.7c3.8,1.5,5.1,1.8,9.2,1.7c7.9,0,13.4-2.9,15.8-8.2c1.4-3.3,1.9-9.2,1.7-23.9l-0.1-12.2
		l-3.4-0.1c-3.2-0.1-3.4-0.1-4.2,0.9l-0.8,1l-2.8-1.4C-179.9,361.8-182.7,361.3-186.2,361.7 M-144.6,361.6c-1.9,0.2-4.4,1.7-6,3.4
		c-1.7,1.8-1.6,1.8-2.3-0.5l-0.5-1.8l-3-0.1c-1.6-0.1-3.4,0-3.9,0.1l-0.9,0.2v15.2v15.2l0.9,0.2c0.5,0.1,2.4,0.2,4.3,0.1l3.4-0.1
		l0.2-9c0.2-7.7,0.3-9.2,0.9-10.1c2-3,4.9-4.4,9-4.3c3.6,0.1,3.7,0,4.1-3.9c0.4-3.6-0.2-4.5-2.6-4.5c-0.7,0-1.5-0.1-1.8-0.1
		C-143.2,361.6-143.9,361.6-144.6,361.6 M-122.6,361.6c-15.2,1.9-19.4,22.2-6.5,30.7c14.8,9.6,31.7-8.6,21.8-23.5
		C-110.6,363.8-116.8,360.9-122.6,361.6 M-51.2,361.6c-1.5,0.2-2.5,0.5-4.9,1.8c-1.6,0.8-2.9,0.7-3.2-0.3c-0.2-0.5-1-0.6-3.8-0.6
		h-3.6v21.6v21.6l0.9,0.2c0.5,0.1,2.3,0.2,4.1,0.1l3.2-0.1l0.1-6.6c0.1-7.3,0.2-7.6,2.2-6.6c4.6,2.3,8.3,2.8,12.1,1.4
		C-25.9,387.7-32,359.4-51.2,361.6 M-371.2,378.2v15.6l4.1-0.1l4.1-0.1l0.2-10c0.2-11,0.3-11.1,2.8-12.6c2.5-1.5,6.8-0.6,8.1,1.8
		c0.3,0.6,0.6,4,0.7,10.9l0.2,10l4.1,0.1l4.1,0.1v-11.2v-11.2l-1-2.2c-1.9-4-6.2-6.6-11.2-6.6c-2.3,0-3.3,0.3-6.5,1.7
		c-0.8,0.4-1.1,0.3-1.9-0.7c-0.9-1-1.1-1.1-4.4-1.1h-3.4V378.2 M-340,363c0,0.2,0.3,1,0.6,1.7c0.3,0.7,0.9,2,1.2,2.9
		c0.4,0.9,0.8,2,1,2.4c0.2,0.4,1.1,2.6,1.9,4.8c1.5,3.8,4.1,10.3,4.9,12c0.2,0.4,0.6,1.4,0.9,2.2c0.3,0.8,0.9,2.2,1.3,3.1l0.7,1.7
		h5.3c5.4,0,6.6-0.3,6.6-1.9c0-0.2,0.5-1.6,1.2-3s1.2-2.8,1.2-3c0-0.2,0.2-0.8,0.4-1.1c0.2-0.4,0.7-1.4,1-2.3
		c0.4-0.9,0.9-2.1,1.2-2.8c0.3-0.7,0.8-2,1.2-3c0.9-2.2,1.7-4.3,2.2-5.4c1.7-3.8,3.2-7.9,3-8.2c-0.1-0.2-2.1-0.4-4.4-0.4h-4.1
		l-0.6,1.3c-0.3,0.7-0.6,1.4-0.6,1.6s-0.2,0.9-0.5,1.6c-0.7,1.7-1.5,3.6-3.7,9.3c-1,2.6-2,5.2-2.2,5.6c-0.2,0.4-0.5,1.3-0.8,2
		c-0.6,1.6-1.6,0.6-2.8-3c-0.5-1.4-1.1-2.8-1.3-3c-0.2-0.2-0.3-0.6-0.3-0.9c0-0.3-0.3-1.1-0.6-1.8c-0.3-0.7-1.3-3.2-2.3-5.7
		c-0.9-2.4-1.9-5-2.2-5.7l-0.5-1.3h-4.4C-338.2,362.6-340,362.7-340,363 M-100.5,362.8c-0.8,0.8-0.3,21.3,0.5,23.5
		c2.4,6.4,9.7,9.1,17,6.3l2.4-0.9l0.8,1.1c0.8,1,1,1.1,4.3,1.1h3.5v-15.6v-15.6l-4.1,0.1l-4.1,0.1l-0.2,9.8
		c-0.2,10.7-0.3,10.9-2.7,12.6c-2.7,1.8-7.1,1-8.4-1.5c-0.3-0.6-0.5-4.2-0.6-10.9l-0.1-10l-4-0.1
		C-98.4,362.6-100.4,362.7-100.5,362.8 M-282.2,369.9c1.7,1,4,4,3.6,4.6c-0.3,0.5-14.1,0.5-14.4,0c-0.3-0.5,1.1-2.8,2.1-3.5
		C-287.5,368.7-285,368.3-282.2,369.9 M-117.7,369.8c7.8,4,5.6,17.6-2.8,17.6c-4.7,0-7.8-3.5-7.8-9
		C-128.2,371.5-122.8,367.1-117.7,369.8 M-178.5,370.9c7.3,3.8,4.7,14-3.5,14c-8,0-11.1-9-4.6-13.4
		C-184.2,369.9-181,369.7-178.5,370.9 M-46,371.2c6.4,4,6.2,12-0.4,15.4c-6.8,3.5-14.2-3.9-11.3-11.3
		C-55.9,370.6-50.1,368.6-46,371.2 M-411.7,398.8c-0.3,0.3-0.3,3.1,0,3.9c0.2,0.6,9.9,0.6,105.4,0.6h105.2V401v-2.4l-105.1,0
		C-364.2,398.6-411.6,398.7-411.7,398.8 M-160.1,398.8c-0.3,0.3-0.3,2.4,0,3.6l0.2,0.9h42.7h42.7l0.2-0.9c0.1-0.5,0.2-1.6,0.1-2.3
		l-0.1-1.4l-42.8-0.1C-140.6,398.6-160,398.7-160.1,398.8 M-51.2,401v2.4l8.7-0.1l8.7-0.1V401v-2.2l-8.7-0.1l-8.7-0.1V401"/>
	<path id="path3" class="st2" d="M-218.9-21.6c-0.1,0.1-2.3,0.4-4.9,0.6c-4.9,0.4-10.4,1.2-13.2,1.9c-0.9,0.2-2.9,0.7-4.6,1
		c-5.1,1.1-8,1.9-8.2,2.3c-0.1,0.2-0.5,0.3-0.9,0.3c-1.2,0-8.2,2.4-12.7,4.3c-0.7,0.3-1.4,0.5-1.5,0.5c-0.2,0-2.7,1-6,2.6
		c-1.1,0.5-6.8,3.3-9.8,4.8c-0.8,0.4-1.9,1.1-2.5,1.5c-0.6,0.4-2.1,1.3-3.3,2c-4.3,2.3-16.1,10.6-20.4,14.4c-0.4,0.4-1.8,1.5-3,2.6
		c-5.4,4.6-14.7,14.1-18.8,19.4c-1.1,1.4-2.4,3.1-2.9,3.6c-1.6,1.9-9.9,14.1-9.9,14.6c0,0.3-0.2,0.6-0.3,0.6
		c-0.8,0.3-10.9,19.5-10.9,20.7c0,0.3-0.2,1-0.6,1.6c-0.9,1.7-1.4,2.9-2.3,5.7c-0.5,1.4-1,2.8-1.2,3c-0.2,0.2-0.7,1.8-1.2,3.4
		c-0.5,1.7-1.2,4.2-1.7,5.6c-0.4,1.4-1,3.4-1.1,4.4c-0.2,1-0.7,3.1-1.1,4.6c-0.7,2.5-1.1,4.9-2.5,13.2c-2,12.1-2,36,0,48.2
		c1.3,7.9,1.8,10.5,2.5,13c0.4,1.5,0.9,3.7,1.1,4.8c0.2,1.1,0.5,2.4,0.7,3c0.2,0.6,0.7,2.1,1,3.4c1.1,3.8,3.1,9.6,3.5,10
		c0.2,0.2,0.4,0.6,0.4,0.9c0,0.3,0.3,1.2,0.6,1.9c0.3,0.7,0.9,2,1.2,2.7c0.3,0.7,0.6,1.5,0.6,1.6c0,0.1,0.7,1.7,1.6,3.6
		c0.9,1.8,1.6,3.5,1.6,3.8s0.2,0.7,0.5,1c0.3,0.3,1.2,1.9,2,3.5c1.9,3.8,3,5.8,4.3,7.8c0.5,0.9,1.1,1.8,1.2,2
		c6.7,12.8,26.2,34.1,41.6,45.3c2.8,2,5.2,3.8,5.4,4c0.6,0.5,4.9,3.3,8.2,5.2c3.2,1.9,15.4,8.2,18.4,9.4c2.6,1.1,5.7,2.3,6.6,2.5
		c0.4,0.1,1.7,0.6,2.9,1.2c1.1,0.5,2.4,1,2.7,1c0.3,0,1.3,0.2,2.1,0.5c2.7,1,8.3,2.6,10.5,3.1c1.2,0.2,3.4,0.7,4.8,1
		c1.5,0.3,2.8,0.6,3,0.7c0.4,0.2,7.1,1.2,14.6,2.1c8.8,1,87.3,0.9,92.2-0.2c5.4-1.2,6-1.4,11.2-3.9c6.6-3.1,13.9-9.3,17.3-14.7
		c0.6-0.9,1.2-1.8,1.3-1.9c0.4-0.3,3.5-6.4,4.2-8.2c3-8.3,3-7.5,2.9-31.6l-0.1-21.6l-0.2,20.6c-0.3,24.6-0.6,27-5.3,36.2
		c-6.8,13.4-18.3,21.7-33.7,24.4c-4.8,0.9-78,0.8-87.2,0c-13.1-1.2-27.7-4-33.4-6.3c-0.5-0.2-2.1-0.7-3.4-1.1
		c-2.9-0.9-5.6-1.8-7.2-2.5c-0.7-0.3-1.8-0.8-2.6-1c-4.4-1.6-16.6-7.7-20.5-10.3c-0.8-0.5-1.9-1.2-2.4-1.4c-0.9-0.4-2.3-1.2-2.7-1.6
		c-0.1-0.1-1.9-1.4-4-2.8c-2.1-1.4-4.3-3-5-3.5c-0.7-0.5-3.2-2.5-5.6-4.4c-4.9-3.9-18.4-17.1-22-21.6c-5.5-6.8-14.4-19.5-15.3-21.9
		c-0.1-0.2-0.6-1.1-1.2-2c-2.8-4.4-8.6-16.9-10.7-22.8c-0.4-1.1-0.8-2.2-1-2.4s-1.1-3.2-2.2-6.6c-2.9-9.6-3-10.1-3-10.7
		c0-0.3-0.3-1.4-0.6-2.5c-0.3-1-0.8-3.1-1-4.7c-0.3-1.5-0.7-4.1-1-5.8c-1.4-7.7-1.6-11.5-1.6-26.8c0-15.4,0.1-17.7,1.7-26.6
		c2-11.5,4.1-19.7,7.8-30c1.5-4.3,1.9-5.3,3.2-8.2c0.3-0.8,0.9-2.1,1.3-3c0.9-2.1,4.7-9.5,6-11.8c0.6-1,1.2-2.1,1.3-2.4
		c0.2-0.5,1.6-2.8,5.5-9c0.3-0.4,0.7-1.1,1-1.4c0.3-0.3,1.5-2.1,2.8-3.9c1.3-1.8,2.9-4,3.6-4.8c0.7-0.9,2.1-2.6,3.2-4
		c3.8-4.8,13.2-14.4,18.1-18.6c1.4-1.2,2.8-2.4,3-2.6c0.2-0.2,2.3-1.8,4.6-3.6s4.3-3.3,4.4-3.4c0.7-0.8,11.1-7.4,14.6-9.2
		c1.3-0.7,2.7-1.5,3-1.8c0.3-0.3,0.7-0.6,0.9-0.6c0.1,0,1.7-0.7,3.6-1.6c2.7-1.3,7.1-3.3,13.7-5.9c2.6-1.1,4.4-1.7,8.2-2.8
		c2.3-0.7,4.6-1.4,5-1.6c0.4-0.2,2.2-0.6,4-1c1.8-0.4,4.1-0.9,5.2-1.2c3.8-1,12.1-2.3,21-3.1c3.4-0.3,24-0.5,65.3-0.6l60.3-0.1
		l0.3,1c0.5,1.8-1.5,11.8-2.9,14.9c-0.3,0.7-0.6,1.4-0.6,1.6c0,0.6-4.2,8.4-4.8,8.9c-0.1,0.1-0.7,0.9-1.2,1.7
		c-2.5,3.8-10.2,10.3-15,12.8c-3.9,2-5.9,2.7-12,4.4c-1.1,0.3-16.3,0.5-44.6,0.7c-25.1,0.2-44.2,0.5-45.8,0.7
		c-5.4,0.8-10.9,1.8-14,2.6c-3.2,0.9-10.3,3-11.2,3.4c-0.4,0.2-2.2,0.9-4,1.6c-9.4,3.6-23.1,11.8-29.8,17.8c-0.5,0.5-2.1,1.8-3.4,3
		c-3.8,3.4-6.6,6.2-12,12.4c-1.7,1.9-6.6,8.8-6.6,9.2c0,0.2-0.1,0.4-0.3,0.5c-1.1,0.4-10.9,18.6-10.9,20.1c0,0.3-0.3,1-0.6,1.5
		c-0.9,1.3-4.2,11.5-5,15.5c-0.2,0.8-0.7,3.1-1.2,5.2c-0.5,2.1-1,5.5-1.2,7.6c-0.2,2.1-0.5,5.2-0.8,6.8c-0.5,3.9-0.5,14.1,0,18
		c0.2,1.6,0.6,4.8,0.8,7c0.2,2.2,0.6,4.8,0.8,5.8c1.9,8,2.9,12.3,3.2,13c0.2,0.4,0.9,2.6,1.6,4.8c0.7,2.2,1.5,4.4,1.8,4.8
		c0.3,0.4,0.5,1.1,0.5,1.4c0,0.7,6.6,13.9,7.4,14.8c0.3,0.3,0.6,0.8,0.6,0.9c0,0.4,4.7,7.3,7,10.3c6.3,8.2,12.7,14.7,20,20.5
		c1.3,1,2.6,2.1,2.8,2.2c4.7,3.8,17.2,11,24,13.7c7.9,3.2,12.9,4.7,19.4,6.1c6.8,1.4,9.4,1.8,14.4,2.2c7.4,0.5,77,0.5,78,0
		c0.7-0.4,0.8-1,0.8-18c0-15.6-0.1-17.6-0.6-17.1c-0.5,0.4-0.6,2.8-0.6,17.2c0,14-0.1,16.8-0.6,17.2c-0.4,0.4-9.7,0.4-38.5,0.3
		c-43-0.2-42.2-0.2-55.7-3.2c-2.6-0.6-11.1-3.3-13.4-4.2c-0.7-0.3-1.6-0.6-2-0.8s-1.6-0.7-2.7-1.1c-1-0.5-2.1-0.8-2.3-0.8
		c-0.2,0-0.4-0.1-0.5-0.3c-0.1-0.2-1.5-1-3.1-1.8c-1.7-0.8-3.9-2-5-2.7c-1.1-0.7-2.3-1.3-2.6-1.5c-9.7-4.5-27.2-21.7-36.1-35.3
		c-4.7-7.3-10.1-18.2-11.8-23.8c-0.3-1.1-0.8-2.5-1.1-3.2c-0.6-1.5-1.6-4.9-2.4-8.4c-0.4-1.5-0.8-3.3-1-4c-3-9.7-3-40.9,0-49.4
		c0.2-0.5,0.7-2.4,1-4.2c0.4-1.8,0.9-3.8,1.2-4.5c0.3-0.7,0.6-1.6,0.6-2c0-0.4,0.2-0.9,0.4-1.1c0.2-0.2,0.7-1.5,1-2.8
		c0.4-1.3,1-3.1,1.4-4c0.4-0.9,1.2-2.9,1.8-4.4s1.3-2.9,1.4-3c0.1-0.1,0.4-0.6,0.5-1.1c0.3-1,2.7-5.3,5.1-9.2
		c0.8-1.4,1.5-2.6,1.5-2.7c0-0.2,4-5.8,4.9-7c0.3-0.3,1.4-1.8,2.5-3.2c2-2.6,12-12.8,15.4-15.8c2.8-2.4,7.9-6.2,8.4-6.2
		c0.2,0,0.4-0.1,0.5-0.3c0.1-0.3,5.7-4.1,6.1-4.1c0.1,0,1.3-0.7,2.7-1.5c4.2-2.5,12.2-6.2,15.7-7.3c0.7-0.2,1.6-0.5,2-0.7
		c1.3-0.6,7.9-2.6,9.6-2.9c0.9-0.2,3.3-0.7,5.4-1.1c10.3-2.1,9-2.1,52.9-2.1c24.5,0,41.6-0.2,42.7-0.4c1-0.2,2.7-0.6,3.8-0.8
		c11.6-2.3,22.5-9.7,29-19.8c5-7.7,7.3-14.5,7.3-21.6l0-4.8l-63.4-0.1C-190.1-21.8-218.8-21.7-218.9-21.6 M-210.8,71.4
		c-5.4,0.4-13.5,1.9-14.5,2.7c-0.3,0.2-1,0.5-1.7,0.6c-2.6,0.4-10.3,4-13.9,6.3c-1.3,0.8-2.4,1.5-2.5,1.5c-0.5,0-6.3,4.7-9.7,7.8
		c-2.3,2.1-7,7.6-8.3,9.6c-0.4,0.7-0.9,1.3-1,1.4c-0.9,0.7-7.2,12.3-7.2,13.3c0,0.2-0.2,1-0.6,1.7c-1.5,3.3-3,8.9-3,10.9
		c0,0.7-0.2,1.4-0.4,1.6c-1.2,1.2-1.5,20.2-0.4,24.4c0.2,0.9,0.6,2.5,0.8,3.7c0.5,2.9,1.4,5.9,2.4,8.5c0.5,1.2,1,2.6,1.2,3.2
		c0.9,2.8,5,10.5,6.9,12.9c0.6,0.8,1.1,1.6,1.1,1.7c0,1,10.4,12.1,12.2,13.1c0.3,0.2,1,0.8,1.6,1.3c3,2.8,14.3,9.2,17.5,10
		c0.6,0.2,1.6,0.5,2.2,0.8c0.6,0.3,1.4,0.5,1.7,0.5c0.4,0,1.2,0.3,1.8,0.6c0.6,0.3,2.4,0.8,4.1,1c1.6,0.3,3.8,0.7,4.8,0.9
		c2,0.5,78.4,1.1,78.4,0.6c0-0.7-3.5-0.7-35.7-0.8c-40.9,0-46.1-0.4-54.5-3.8c-0.7-0.3-1.9-0.7-2.8-1c-3.5-1.1-10-4.7-15.8-8.7
		c-19.6-13.8-31.9-44.3-27-67.5c2-9.7,3.2-13.3,5.9-19c4.6-9.7,12.3-19.1,20.5-25.3c1.8-1.3,3.3-2.6,3.3-2.7
		c0.1-0.2,0.3-0.3,0.5-0.3s1.3-0.6,2.5-1.3c3.4-2,5.1-2.9,8.5-4.3c7.7-3.2,11.1-4,20.8-5c8.2-0.9,68.6-0.9,75.6,0
		c5.5,0.7,10.5,1.7,10.8,2.2c0.1,0.2,0.5,0.4,0.9,0.4c1.3,0,8.2,3.7,11.7,6.2c8.5,6.2,15.2,15.8,17.9,25.6c2,7.3,1.9,4.6,2.1,56.6
		l0.2,48.6l0-50.8c0-55.7,0.2-50.8-2.4-57.8c-2.7-7.3-9.1-16.8-13.1-19.6c-0.5-0.3-1.1-0.9-1.3-1.3c-0.5-0.7-5.2-3.9-7.3-5.1
		c-2.6-1.4-4.8-2.4-6.4-3c-9-3.3-6.3-3.1-47.6-3.2C-190.1,71.1-208.5,71.2-210.8,71.4 M-208.8,118.2c-1.6,0.2-3.4,0.5-3.8,0.7
		c-21.7,9.4-22.2,36.5-0.8,45.1l2.8,1.1l36.2,0.1c35,0.1,36.2,0.1,36.9-0.6c0.6-0.7,0.7-2.6,0.6-23.3l-0.1-22.6l-1-0.5
		C-139.2,117.7-203.8,117.6-208.8,118.2 M-138.1,141.4c0.1,22.1,0.1,22.3-0.7,22.7c-1.8,0.9-71,0.3-73.4-0.7c-3-1.2-5.8-2.7-6.6-3.3
		c-0.4-0.3-1-0.9-1.4-1.2c-7.7-6.4-10.1-19.8-5.1-28.1c0.5-0.8,0.9-1.6,0.9-1.8c0-1.7,6.9-7.1,11.3-8.9l2.9-1.1l36,0.1l36,0.1
		L-138.1,141.4"/>
	<path id="path4" class="st3" d="M-216.1,26c0.5,0.1,1.2,0.1,1.6,0c0.4-0.1,0-0.2-0.9-0.2C-216.3,25.9-216.6,26-216.1,26
		 M-210.1,71.3c0.7,0.1,1.8,0.1,2.4,0c0.6-0.1,0-0.2-1.3-0.2S-210.8,71.2-210.1,71.3 M-137.9,71.3c0.6,0.1,1.6,0.1,2.2,0
		c0.6-0.1,0.1-0.2-1.1-0.2C-138,71.1-138.5,71.2-137.9,71.3 M-104.6,86.6c0.9,0.9,1.7,1.6,1.8,1.6c0.1,0-0.5-0.7-1.4-1.6
		c-0.9-0.9-1.7-1.6-1.8-1.6C-106.1,85-105.5,85.7-104.6,86.6 M-365.9,130.8c0,1.1,0.1,1.5,0.2,0.9c0.1-0.6,0.1-1.5,0-2
		C-365.8,129.2-365.9,129.7-365.9,130.8 M-319.5,141.8c0,2.3,0.1,3.3,0.1,2.1s0.1-3,0-4.2S-319.5,139.5-319.5,141.8 M-275.1,141.8
		c0,2.3,0.1,3.3,0.1,2.1s0.1-3,0-4.2S-275.1,139.5-275.1,141.8 M-227.9,141.6c0,1.1,0.1,1.5,0.2,0.9c0.1-0.6,0.1-1.5,0-2
		C-227.8,140-227.9,140.5-227.9,141.6 M-365.9,152.6c0,1,0.1,1.4,0.2,0.9c0.1-0.5,0.1-1.3,0-1.8
		C-365.8,151.2-365.9,151.6-365.9,152.6 M-189.9,164.5c9.4,0.1,24.7,0.1,34,0c9.3-0.1,1.6-0.1-17.1-0.1S-199.3,164.4-189.9,164.5
		 M-253.2,193.2c0.7,0.8,1.4,1.4,1.6,1.4s-0.4-0.6-1.2-1.4c-0.7-0.8-1.4-1.4-1.6-1.4S-253.9,192.4-253.2,193.2 M-91.8,217.4
		c0,3.2,0.1,4.5,0.1,2.9s0.1-4.2,0-5.8S-91.8,214.2-91.8,217.4 M-138.3,213.1c0.1,0.5,0.2,3,0.2,5.6c0,4.2,0.1,4.7,0.6,4.3
		c0.8-0.6,0.9-9.6,0.1-10.3C-138,211.9-138.5,212.1-138.3,213.1 M-192.5,257.7c10,0.1,26.2,0.1,36,0c9.8-0.1,1.7-0.1-18.1-0.1
		C-194.4,257.6-202.4,257.6-192.5,257.7 M-105,291.9l-2,2.1l2.1-2c1.2-1.1,2.1-2,2.1-2.1C-102.8,289.6-103.2,289.9-105,291.9
		 M-392.9,348.8c-0.1,0.1-0.3,2-0.3,4.1v3.9l1.6,0.3l1.6,0.3v14.2v14.2h-1.6h-1.6v4.2v4.2h8.6c9.8,0,9,0.4,9-4.2
		c0-3.9-0.1-4.2-2-4.2h-1.6v-14.2v-14.2l1.7-0.3l1.7-0.3l0.1-3.5c0.1-2.3-0.1-3.7-0.3-4.1C-376.5,348.5-392.4,348.3-392.9,348.8
		 M-377.3,349.2c0.8,0.2,0.9,0.4,0.9,3.8v3.6h-1.4c-2.3,0-2.3-0.2-2.2,15.2l0.1,14.2l1.6,0.2l1.6,0.2v3.6v3.6h-8h-8V390v-3.6
		l1.6-0.2l1.6-0.2l0.1-14.2c0.1-15.4,0.1-15.2-2.2-15.2h-1.4V353c0-3.4,0-3.6,0.9-3.7C-390.5,349-378.3,348.9-377.3,349.2
		 M-234.7,354.6c-0.3,0.3-0.5,1.8-0.5,4c0,2.7-0.1,3.5-0.6,3.5c-0.3,0-0.8,0.3-1,0.6c-0.3,0.3-0.9,0.6-1.3,0.6
		c-1.3,0-1.9,1.2-1.9,4.1c0,3,0.1,3.1,3,3.1h1.7l0.1,9.1c0.2,10.9,0.7,12.3,5.6,14.9c2.2,1.2,9.2,1.1,11.5-0.1l1.6-0.8l0-3.3
		c0-3.9-0.3-4.5-1.9-4.1c-2.8,0.7-3.3,0.7-4.4,0c-2.5-1.5-2.5-1.8-2.5-9.1l0-6.7l4.3-0.1l4.3-0.1v-4v-4l-4.3-0.1l-4.3-0.1v-3.7
		c0-3-0.1-3.8-0.6-4C-227,354-234.2,354.1-234.7,354.6 M-226.9,354.8c0.8,0.2,0.9,0.5,1,3.9l0.1,3.7l3.4,0.1c5.5,0.2,5.2,0,5.2,3.9
		c0,3.9,0.3,3.7-5.2,3.9l-3.4,0.1l-0.1,6.5c-0.2,9,0.4,10.1,5.7,10.5l2.8,0.2l0.1,2.9l0.1,2.9l-1.5,0.6c-3.9,1.7-9.9,1-12.7-1.5
		c-2.5-2.2-2.8-3.3-3-13.1l-0.2-9l-2.2-0.2l-2.2-0.2l-0.1-1.6c-0.2-2.8,0.2-4.2,1.4-4.5c2.8-0.7,3.3-1.5,3.3-5.3
		c0-3.4,0-3.6,0.9-3.7C-232.1,354.6-227.9,354.6-226.9,354.8 M-290.8,361.6c-0.3,0.3-0.9,0.6-1.4,0.6c-0.5,0-1.1,0.3-1.4,0.6
		c-0.3,0.3-0.7,0.6-1,0.6c-0.9,0-5.2,4.6-6.3,6.8c-2.5,4.9-2.7,11.3-0.3,15.2c0.4,0.7,1,1.7,1.2,2.2c0.5,1.2,4.3,4.6,5.8,5.2
		c0.8,0.3,1.5,0.8,1.6,1s0.6,0.4,1.1,0.4c0.5,0,1.2,0.3,1.7,0.6c0.6,0.4,2,0.6,5.8,0.6s5.2-0.1,5.8-0.6c0.4-0.3,1.1-0.6,1.5-0.6
		c0.9,0,2.9-1.1,4.1-2.2c0.9-0.8,0.9-0.9-0.3-3.1c-0.2-0.3-0.5-1-0.8-1.6c-0.9-2-2.6-2.3-6.9-0.9c-3.2,1-6.7,0.2-9.7-2.1l-1.6-1.2
		l11.2-0.2l11.2-0.2l0-4.6c0-4.8-0.3-5.9-2.3-9.2c-1.2-2-4.1-5.1-5.3-5.6c-0.4-0.2-1.1-0.5-1.4-0.7c-2.7-1.5-3.2-1.7-7.5-1.7
		C-289.3,361-290.4,361.1-290.8,361.6 M-257.8,361.6c-0.4,0.3-1,0.6-1.4,0.6c-2,0.1-5.6,4.7-6.1,7.8c-0.7,4.4,2.6,10.6,5.7,10.6
		c0.4,0,1.1,0.3,1.5,0.6c0.4,0.3,1.6,0.6,2.6,0.6c1,0,2.1,0.3,2.6,0.6c0.4,0.3,1.1,0.6,1.5,0.6c1.7,0,1.3,2.4-0.6,3.4
		c-1.5,0.8-2.7,0.6-4.8-0.8c-1.7-1.1-3.5-1.3-4.4-0.4c-0.3,0.3-0.9,0.6-1.2,0.6c-0.3,0-0.8,0.3-1.1,0.6c-0.3,0.3-0.7,0.6-1,0.6
		c-2.3,0-0.1,4.7,2.8,6c0.4,0.2,1.1,0.5,1.4,0.7c2.6,1.5,3.2,1.7,7.1,1.7c2.9,0,4.2-0.2,4.7-0.6c0.4-0.3,1.1-0.6,1.6-0.6
		c1.2,0,4.5-3,5.8-5.4c2-3.5,1.5-7.3-1.5-10.5c-1.8-1.9-5.7-3.8-8-3.8c-3.2,0-5.8-2.5-4.2-4c1.4-1.3,3.1-1.1,4.8,0.6
		c0.7,0.7,3.3,0.7,4.3,0c0.4-0.3,1.2-0.6,1.8-0.6c1.9,0,2.7-2.4,1.4-3.8c-0.3-0.3-0.6-0.8-0.6-1c0-0.5-2.1-2.5-2.7-2.5
		c-0.2,0-0.7-0.3-0.9-0.6c-0.3-0.3-0.8-0.6-1.2-0.6s-0.9-0.3-1.2-0.6C-249.9,360.7-256.7,360.7-257.8,361.6 M-190.5,362.3
		c-11.9,6.2-12,23.1-0.2,29.5c3.2,1.7,9.7,1.9,13,0.2c2.5-1.2,2.5-1.2,2.5-0.2c0,2.2-3.2,6.4-4.9,6.4c-0.3,0-1.3,0.3-2.3,0.7
		c-1.5,0.6-2,0.6-3.8,0.2c-1.1-0.3-2.6-0.6-3.3-0.7c-0.7-0.1-2.1-0.7-3.3-1.3c-2.5-1.3-2.7-1.2-2.9,2.3c-0.3,4.9,1.1,7.2,4.3,7.2
		c0.4,0,0.9,0.2,1.2,0.5c0.9,0.9,10.8,0.9,13.4,0.1c2.5-0.8,4.7-1.8,5.3-2.4c0.2-0.2,0.9-0.8,1.4-1.2c4.7-4.1,5.3-7.1,5.1-27
		l-0.1-14.2l-4.3-0.1c-3.6-0.1-4.3,0-4.5,0.5c-0.3,0.8-1.5,0.8-2.1,0c-0.3-0.3-0.8-0.6-1.1-0.6c-0.4,0-1-0.3-1.4-0.6
		C-180.1,360.4-187.8,360.8-190.5,362.3 M-147.6,361.8c-0.8,0.4-2.1,1.3-2.9,2c-1.6,1.3-1.7,1.2-2-0.6c-0.1-0.7-0.5-0.8-4.6-0.9
		l-4.5-0.1v16v16h4.4c6.2,0,5.6,0.9,5.6-8.6c0-9.7,0.1-10.2,2-12.1c2.3-2.3,7-3.6,9-2.6c2.3,1.2,2.9,0.1,3-5.3c0-3.3,0-3.5-0.9-4.1
		C-140,360.7-145.7,360.8-147.6,361.8 M-126,361.5c-0.5,0.3-1.7,0.9-2.5,1.3c-1.8,0.9-5.8,4.3-6.3,5.5c-0.2,0.5-0.7,1.4-1.1,2
		c-2.5,4.3-2.5,11.3,0,15.6c0.4,0.7,0.9,1.6,1.1,2c0.5,1.2,4.5,4.6,6.3,5.5c0.9,0.4,2,1,2.6,1.3c0.7,0.4,2.5,0.6,5.3,0.6
		c2.9,0,4.6-0.2,5.3-0.6c0.6-0.3,1.8-0.9,2.6-1.3c12-5.7,12-24.9,0-30.7c-0.9-0.4-2-1-2.6-1.3C-116.7,360.8-124.6,360.8-126,361.5
		 M-55.6,362.2c-2,1-2.2,1.1-2.8,0.5c-0.5-0.5-1.5-0.6-4.8-0.5l-4.2,0.1v22v22h4.8h4.8l0.1-6.5c0.1-6.4,0.5-7.8,1.5-6.1
		c0.1,0.2,0.6,0.4,1.1,0.4c0.5,0,1.2,0.3,1.7,0.6c1,0.8,8.5,0.8,9.6,0c0.4-0.3,1.3-0.7,1.9-0.8c0.6-0.1,1.1-0.4,1.1-0.7
		c0-0.2,0.3-0.4,0.6-0.4c3,0,7.8-8.9,7.8-14.6c0-6-4.7-15-7.8-15c-0.3,0-0.6-0.2-0.6-0.4c0-0.2-0.5-0.5-1.1-0.7
		c-0.6-0.1-1.5-0.5-1.9-0.8C-45.4,360.4-53,360.9-55.6,362.2 M-279.3,363c5.8,2.7,10.3,10.5,9.5,16.5c-0.4,3.2,0.1,3-11.6,3
		c-11.6,0-12.1,0.1-9.7,2.1c3.1,2.6,9.3,3.7,12.4,2.1c2.3-1.2,3.5-0.7,4.8,1.9c1.6,3.1,0.7,4-5.5,5.6c-21.9,5.9-31.7-23.5-10.8-32.2
		C-287.7,361.1-282.6,361.5-279.3,363 M-248.6,362.6c4.5,1.9,7.3,6.7,4.3,7.4c-0.6,0.1-1.8,0.5-2.6,0.9c-1.4,0.6-1.5,0.6-3.2-0.6
		c-1.9-1.4-3.7-1.6-5-0.5c-2.6,2.2-0.8,5.3,3.2,5.3c4.4,0,9.7,3.8,10.6,7.6c2.6,10.7-14.3,16.7-22.2,8c-1.9-2.1-1.8-2.6,1.4-4.3
		l2.7-1.4l1.7,1.2c2.5,1.8,5.2,1.8,7-0.2c1.9-2-0.2-4.6-3.7-4.6c-5.3,0-10.3-4.6-10.3-9.4C-264.6,364.2-256.3,359.3-248.6,362.6
		 M-177,363.2l2.8,1.4l0.8-1c0.8-1,1-1,4.2-0.9l3.4,0.1l0.1,12.2c0.1,14.7-0.3,20.6-1.7,23.9c-2.3,5.3-7.9,8.2-15.8,8.2
		c-4.1,0-5.4-0.2-9.2-1.7l-1.8-0.7l-0.1-3.3c-0.1-3.8,0.1-4.2,1.8-3.4c9.1,4.5,18.6,0.4,18.6-8c0-0.4-1.1-0.1-3.6,1.1
		c-5.7,2.7-12.1,1.7-16.6-2.7c-3.2-3.1-4.4-6.5-4.2-11.8c0.2-6.5,5.1-14,9-14c0.4,0,0.9-0.2,1.1-0.4
		C-186.9,360.9-180.5,361.5-177,363.2 M-141.1,361.8c2.5,0,3,0.9,2.6,4.5c-0.4,3.9-0.5,4-4.1,3.9c-4.1-0.1-7,1.3-9,4.3
		c-0.6,0.9-0.7,2.4-0.9,10.1l-0.2,9l-3.4,0.1c-1.9,0.1-3.8,0-4.3-0.1l-0.9-0.2v-15.2V363l0.9-0.2c0.5-0.1,2.2-0.2,3.9-0.1l3,0.1
		l0.5,1.8c0.7,2.3,0.6,2.3,2.3,0.5c2.1-2.3,5.8-3.9,7.8-3.4C-142.6,361.7-141.8,361.8-141.1,361.8 M-115.2,362.4
		c8.8,2.9,13.5,14.5,9.3,22.9c-7.9,16-30.7,10.7-30.7-7.2C-136.6,366.4-126.3,358.8-115.2,362.4 M-43.7,362.4
		c11.9,4,14.1,22.4,3.5,29.7c-5,3.4-10.2,3.6-16.2,0.6c-1.9-1-2-0.7-2.2,6.6l-0.1,6.6l-3.2,0.1c-1.8,0.1-3.6,0-4.1-0.1l-0.9-0.2
		v-21.6v-21.6h3.6c2.8,0,3.7,0.1,3.8,0.6c0.4,1,1.6,1.1,3.2,0.3c2.4-1.3,3.4-1.6,4.9-1.8C-49.1,361.4-45.6,361.7-43.7,362.4
		 M-371.8,362.7c-0.1,0.3-0.1,7.4-0.1,15.9l0.1,15.4l4.6,0.1c5.7,0.1,5.2,1,5.2-10c0-10.8,0.1-11.2,3.2-12.8
		c2.1-1.1,5.1-0.3,6.1,1.7c0.4,0.7,0.6,3.8,0.7,11l0.2,10h4.8h4.8l0.1-11.4c0.1-11,0.1-11.5-0.8-13.4c-1-2.1-4.4-5.8-5.5-5.8
		c-0.4,0-1-0.3-1.5-0.6c-0.9-0.7-9-0.9-9.6-0.2c-1,1-2.9,1.2-3.6,0.4C-363.9,362-371.5,361.8-371.8,362.7 M-340.6,362.7
		c-0.2,0.5,0.7,3.2,1.8,5.7c0.2,0.4,0.7,1.5,1,2.4c0.4,0.9,0.9,2.1,1.2,2.7c0.3,0.6,0.6,1.4,0.6,1.7c0,0.3,0.3,1.1,0.6,1.7
		c0.3,0.6,1.1,2.5,1.8,4.3c1.3,3.2,1.5,3.7,2.5,6.2c0.3,0.8,1,2.4,1.5,3.6c1.4,3.4,1,3.2,7.9,3.2c5.5,0,6.2-0.1,6.4-0.7
		c0.1-0.4,0.5-1.2,0.8-1.9c1.4-3.2,1.8-4.2,1.8-4.6c0-0.2,0.2-0.8,0.4-1.1c0.2-0.4,0.8-1.6,1.2-2.7c1.3-3,1.5-3.5,2.2-5.1
		c0.4-0.8,0.6-1.7,0.6-1.9s0.2-0.8,0.4-1.1c0.2-0.4,0.7-1.4,1-2.3c1-2.4,1.8-4.3,2.4-5.5c0.3-0.6,0.6-1.4,0.6-1.8
		c0-0.4,0.3-1,0.6-1.4c1.1-1.5,0.1-1.8-5-1.8c-5.5,0-5.4,0-6.8,4c-1.8,5.2-2.1,5.8-2.4,6.2c-0.2,0.2-0.4,0.7-0.4,1.1
		c0,0.4-0.3,1.2-0.6,1.8c-0.9,1.8-1.8,4-1.8,4.4c0,0.2-0.3,1.1-0.7,1.9l-0.7,1.5l-0.7-0.9c-0.4-0.5-0.7-1.2-0.7-1.6
		c0-0.3-0.1-0.8-0.3-1c-0.2-0.2-0.7-1.3-1.1-2.4c-0.4-1.1-0.9-2.5-1.2-3.2c-0.3-0.7-0.8-1.9-1.1-2.8c-1.3-3.4-2-5.2-2.3-6
		c-0.2-0.4-0.5-1.3-0.7-1.9l-0.4-1.1h-5C-339.2,362.2-340.5,362.3-340.6,362.7 M-101.5,362.6c-0.6,0.6-0.7,19.7-0.1,20.1
		c0.2,0.1,0.4,1,0.4,1.8c0,3.1,3.1,7,7,8.7c2.4,1.1,9.5,1.2,10.8,0.2c1-0.8,2-0.7,3.2,0c0.7,0.5,1.9,0.6,4.9,0.5l3.9-0.1v-15.8
		v-15.8h-4.8H-81l-0.2,9.8c-0.2,11.6-1,13.6-5.4,13.6c-4.1,0-4.8-1.8-5-13.6l-0.2-9.8l-4.6-0.1C-99.7,362.2-101.2,362.3-101.5,362.6
		 M-363.4,363.7c0.8,0.9,1.1,1,1.9,0.7c3.2-1.5,4.2-1.7,6.5-1.7c5,0,9.3,2.5,11.2,6.6l1,2.2v11.2v11.2l-4.1-0.1l-4.1-0.1l-0.2-10
		c-0.1-6.9-0.4-10.3-0.7-10.9c-1.4-2.4-5.6-3.3-8.1-1.8c-2.5,1.5-2.6,1.7-2.8,12.6l-0.2,10l-4.1,0.1l-4.1,0.1v-15.6v-15.6h3.4
		C-364.6,362.6-364.3,362.6-363.4,363.7 M-330.6,363.9c0.3,0.7,1.3,3.3,2.2,5.7c0.9,2.4,1.9,5,2.3,5.7c0.3,0.7,0.6,1.5,0.6,1.8
		c0,0.3,0.2,0.7,0.3,0.9c0.2,0.2,0.8,1.5,1.3,3c1.3,3.6,2.2,4.6,2.8,3c0.3-0.6,0.6-1.5,0.8-2c0.2-0.4,1.2-3,2.2-5.6
		c2.2-5.6,2.9-7.5,3.7-9.3c0.3-0.7,0.5-1.4,0.5-1.6s0.3-0.9,0.6-1.6l0.6-1.3h4.1c2.3,0,4.3,0.2,4.4,0.4c0.2,0.3-1.3,4.4-3,8.2
		c-0.5,1.1-1.3,3.2-2.2,5.4c-0.4,1-0.9,2.3-1.2,3c-0.3,0.7-0.8,1.9-1.2,2.8c-0.4,0.9-0.8,1.9-1,2.3c-0.2,0.4-0.4,0.9-0.4,1.1
		c0,0.2-0.5,1.6-1.2,3s-1.2,2.8-1.2,3c0,1.6-1.2,1.9-6.6,1.9h-5.3l-0.7-1.7c-0.4-0.9-1-2.3-1.3-3.1c-0.3-0.8-0.7-1.8-0.9-2.2
		c-0.7-1.7-3.4-8.2-4.9-12c-0.9-2.2-1.7-4.4-1.9-4.8c-0.2-0.4-0.7-1.5-1-2.4c-0.4-0.9-0.9-2.2-1.2-2.9c-0.9-2.1-0.9-2.1,3.9-2.1h4.4
		L-330.6,363.9 M-92.1,372.8c0.1,6.7,0.3,10.3,0.6,10.9c1.3,2.5,5.8,3.3,8.4,1.5c2.4-1.7,2.5-1.8,2.7-12.6l0.2-9.8l4.1-0.1l4.1-0.1
		v15.6v15.6h-3.5c-3.3,0-3.5-0.1-4.3-1.1l-0.8-1.1l-2.4,0.9c-7.2,2.8-14.6,0.1-17-6.3c-0.8-2.2-1.3-22.7-0.5-23.5
		c0.2-0.2,2.1-0.2,4.3-0.2l4,0.1L-92.1,372.8 M-289,369.8c-2.3,1.4-2.6,1.8-3.5,3.1c-1.2,2-0.9,2.1,6.7,2.1c7.8,0,8-0.1,6.3-2.5
		C-281.7,369.2-286.1,368-289,369.8 M-123.4,369.7c-8,4.7-5.9,17.7,2.9,17.7c5.5,0,9.4-7.3,6.9-12.9
		C-115.5,369.9-120,367.7-123.4,369.7 M-283,370.4c1.4,0.6,3.5,2.8,3.3,3.5c-0.3,0.9-12.1,0.6-12-0.4c0.1-0.9,2.2-3,3-3
		c0.3,0,0.7-0.2,0.9-0.4C-286.8,369.3-285.4,369.4-283,370.4 M-118.2,370.4c5,2.2,6.2,9.7,2.3,14.1c-0.6,0.7-1.4,1.3-1.8,1.3
		c-0.3,0-0.8,0.3-1.1,0.6c-0.6,0.8-2.4,0.8-3.4,0c-0.4-0.3-1-0.6-1.3-0.6c-0.8,0-2.7-2.1-3.4-3.8c-2-4.7,0.2-10,4.8-11.9
		C-120.6,369.4-120.3,369.5-118.2,370.4 M-186.6,371.5c-2.5,1.7-3.4,3.4-3.4,6.3c-0.1,8.4,13,10,15.5,1.9
		C-172.5,372.9-180.6,367.4-186.6,371.5 M-54,370.9c-6.1,3.2-5.8,12.4,0.5,15.7c6.2,3.2,14-3.6,11.8-10.3
		C-43.4,371.2-49.5,368.6-54,370.9 M-179.8,371.2c0.4,0.3,1,0.6,1.3,0.6c2.5,0,4.4,6.6,2.6,9.2c-4,5.9-13.2,3.6-13.3-3.4
		c0-2.4,2.2-5.9,3.7-5.9c0.3,0,0.9-0.3,1.3-0.6c0.4-0.3,1.4-0.6,2.2-0.6S-180.3,370.9-179.8,371.2 M-47.4,371.4
		c6.8,3.5,6.8,11.5,0,14.8c-3.9,1.9-8.8-0.9-9.7-5.4c-0.7-3.5,1.1-8.9,3.1-9c0.3,0,1-0.3,1.6-0.6C-51,370.4-49.2,370.4-47.4,371.4
		 M-411.9,398.1c-0.4,0.2-0.5,1.2-0.4,3.1l0.1,2.8l105.7,0.1l105.7,0.1l0.2-0.9c0.4-1.5,0.3-4.5-0.2-5
		C-201.4,397.7-411,397.5-411.9,398.1 M-160.3,398.2c-0.5,0.5-0.6,4.6-0.1,5.4c0.3,0.4,9.2,0.5,43.5,0.4l43.2-0.1l0.1-2.8
		c0.1-1.9,0-2.9-0.4-3.1C-75,397.5-159.8,397.7-160.3,398.2 M-51.3,398c-0.2,0.2-0.3,1.6-0.3,3.2v2.9l9.1-0.1l9.1-0.1v-3v-3
		l-8.8-0.1C-47.1,397.8-51.2,397.9-51.3,398 M-201.2,401v2.4h-105.2c-95.5,0-105.2-0.1-105.4-0.6c-0.3-0.8-0.3-3.6,0-3.9
		c0.1-0.1,47.6-0.3,105.4-0.3l105.1,0V401 M-74.1,400.1c0.1,0.7,0,1.8-0.1,2.3l-0.2,0.9h-42.7h-42.7l-0.2-0.9
		c-0.3-1.2-0.3-3.3,0-3.6c0.1-0.1,19.5-0.2,43.1-0.2l42.8,0.1L-74.1,400.1 M-33.8,401v2.2l-8.7,0.1l-8.7,0.1V401v-2.4l8.7,0.1
		l8.7,0.1V401"/>
</g>
</svg>
