<?xml version="1.0" encoding="UTF-8"?>
<!DOCTYPE svg PUBLIC "-//W3C//DTD SVG 1.0//EN" "http://www.w3.org/TR/2001/REC-SVG-20010904/DTD/svg10.dtd">
<!-- Creator: CorelDRAW 2017 -->
<svg xmlns="http://www.w3.org/2000/svg" xml:space="preserve" width="2241px" height="335px" version="1.0" style="shape-rendering:geometricPrecision; text-rendering:geometricPrecision; image-rendering:optimizeQuality; fill-rule:evenodd; clip-rule:evenodd"
viewBox="0 0 2241 335.21"
 xmlns:xlink="http://www.w3.org/1999/xlink">
 <defs>
  <style type="text/css">
   <![CDATA[
    .fil1 {fill:#69E071;fill-rule:nonzero}
    .fil0 {fill:url(#id0);fill-rule:nonzero}
    .fil2 {fill:url(#id1);fill-rule:nonzero}
   ]]>
  </style>
  <linearGradient id="id0" gradientUnits="userSpaceOnUse" x1="887.91" y1="41.03" x2="950.41" y2="317.58">
   <stop offset="0" style="stop-opacity:1; stop-color:#07AB5C"/>
   <stop offset="1" style="stop-opacity:1; stop-color:#00CCFF"/>
  </linearGradient>
  <linearGradient id="id1" gradientUnits="userSpaceOnUse" xlink:href="#id0" x1="9.19" y1="80.44" x2="311.74" y2="312.03">
  </linearGradient>
 </defs>
 <g id="Слой_x0020_1">
  <metadata id="CorelCorpID_0Corel-Layer"/>
  <g id="_2226721805120">
   <path class="fil0" d="M1255.68 253.85l38.79 0 0 -134.37 23.59 0 29.15 -32.71 -140.46 0 0 32.71 48.93 0 0 134.37zm-187.83 -13.18c9.6,6.9 21.89,11.57 34.85,13.92l80.78 -32.41c1.8,-4.89 2.77,-10.24 2.77,-16 0,-53.74 -70.99,-49.69 -70.99,-75.55 0,-10.14 8.11,-13.43 17.49,-13.43 13.69,0 27.38,4.05 42.85,11.66l0 -34.74c-10.14,-5.07 -25.61,-9.12 -44.11,-9.12 -37.02,0 -57.56,23.32 -57.56,48.93 0,51.47 70.99,47.92 70.99,75.55 0,10.9 -12.42,14.71 -23.83,14.71 -14.7,0 -27.38,-5.07 -38.54,-12.68l-14.7 29.16zm-138.06 13.18l112.2 0 0 -35.45 -73.41 0 0 -32.5 64.79 0 0 -34.01 -64.79 0 0 -29.67 44.76 0 29.16 -35.45 -112.71 0 0 167.08zm-124.16 1.27l33.47 0 68.71 -168.35 -41.58 0 -31.95 83.41c-4.56,11.67 -8.37,22.57 -11.66,32.2l-0.51 0c-3.29,-9.63 -7.1,-20.53 -11.66,-32.2l-31.95 -83.41 -41.58 0 68.71 168.35zm-90.69 -1.27l0 -167.08 -38.79 0 0 77.33c0,6.59 0,18.76 0.51,27.38l-0.51 0c-4.82,-7.1 -9.63,-13.44 -14.96,-20.28l-64.9 -84.43 -38.79 0 0 167.08 38.79 0 0 -84.93c0,-7.1 0,-18.26 -0.76,-23.84l0.5 0c5.58,7.36 10.4,13.95 15.72,20.79l67.19 87.98 36 0zm-234.26 0l38.79 0 0 -167.08 -38.52 0.18 -0.06 34.78 38.58 -0.27 -38.61 17.55 -0.18 114.84z"/>
   <path class="fil1" d="M2165.7 167.83l0 -49.95 5.83 0c7.61,0 13.44,1.02 17.75,3.55 7.86,4.57 11.41,12.68 11.41,21.3 0,10.65 -3.8,18.51 -11.92,22.31 -4.31,2.03 -9.89,2.79 -16.48,2.79l-6.59 0zm-38.79 85.95l38.79 0 0 -54.77 4.31 0c14.71,0 26.62,-2.03 36.26,-5.58 26.36,-9.88 34.73,-31.43 34.73,-50.7 0,-23.83 -10.4,-40.57 -29.16,-49.19 -10.39,-4.81 -23.32,-6.84 -38.28,-6.84l-46.65 0 0 167.08z"/>
   <path class="fil1" d="M2015.86 256.31c31.19,0 54.51,-9.38 66.17,-30.17 5.33,-9.38 8.12,-21.8 8.12,-36.25l0 -104.42 -38.79 17.5 0 84.63c0,8.62 -1.74,16.25 -5.07,21.81 -5.8,9.65 -16.48,14.7 -30.43,14.7 -13.94,0 -24.59,-5.07 -30.42,-14.7 -3.3,-5.58 -5.07,-13.19 -5.07,-21.81l0 -102.13 -38.79 0 0 104.42c0,14.44 2.82,26.86 8.11,36.25 11.69,20.77 34.99,30.17 66.17,30.17z"/>
   <path class="fil1" d="M1824.95 224.11c-26.36,0 -44.87,-18 -44.87,-53.49 0,-35.5 18.51,-53.5 44.87,-53.5 26.37,0 44.88,18 44.88,53.5 0,35.49 -18.51,53.49 -44.88,53.49zm0 32.2c50.96,0 86.2,-34.99 86.2,-85.69 0,-50.71 -35.24,-85.7 -86.2,-85.7 -50.96,0 -86.2,34.99 -86.2,85.7 0,50.7 35.24,85.69 86.2,85.69z"/>
   <path class="fil1" d="M1459.64 164.71l0 35.44 28.81 0 0 20.41c-5.83,2.28 -14.45,3.55 -23.83,3.55 -33.21,0 -51.47,-21.29 -51.47,-52.48 0,-32.2 19.27,-54.51 57.3,-54.51 18.26,0 33.47,4.82 47.41,11.41l0 -35.75c-14.7,-4.81 -30.67,-7.86 -50.45,-7.86 -58.06,0 -95.58,38.29 -95.58,88.74 0,47.16 32.45,82.65 90.76,82.65 23.33,0 46.65,-5.07 64.65,-13.94l0 -42.22 0 -29.03 0 -6.41 -67.6 0z"/>
   <path class="fil2" d="M171.24 55.02l-1.21 -0.03 -2.34 0.01c-15.29,0 -29.83,3.02 -43.06,8.5 -13.72,5.68 -26.1,14.05 -36.51,24.45 -10.41,10.41 -18.77,22.8 -24.45,36.51 -5.48,13.23 -8.51,27.77 -8.51,43.06 0,15.3 3.03,29.84 8.51,43.07 5.68,13.71 14.04,26.1 24.45,36.5 10.41,10.41 22.79,18.78 36.51,24.46 13.22,5.47 27.77,8.5 43.06,8.5 15.29,0 29.83,-3.03 43.06,-8.5 13.72,-5.68 26.1,-14.05 36.51,-24.46 8.79,-8.79 16.14,-19.03 21.64,-30.31 2.64,-5.43 4.87,-11.1 6.62,-16.97l-76.44 33.23 1.36 -71.41 136.24 -59.22c9.4,60.6 4.52,128.75 -50.42,183.69 -15.43,15.42 -33.9,27.88 -54.47,36.4 -19.78,8.19 -41.44,12.71 -64.1,12.71 -22.66,0 -44.32,-4.52 -64.1,-12.71 -20.57,-8.52 -39.04,-20.98 -54.47,-36.4 -15.43,-15.43 -27.88,-33.91 -36.4,-54.48 -8.2,-19.78 -12.72,-41.43 -12.72,-64.1 0,-22.66 4.52,-44.31 12.72,-64.09 8.52,-20.57 20.97,-39.05 36.4,-54.48 15.42,-15.43 33.9,-27.88 54.47,-36.4 67.72,-28.05 144.13,-6.95 188.66,42.08l-57.02 22.76 -3.45 -2.39c-8.64,-6 -18.15,-10.81 -28.3,-14.22 -9.84,-3.29 -20.29,-5.27 -31.13,-5.71l-1.11 -0.05z"/>
   <path class="fil1" d="M1674.84 195.33l38.03 58.45 -43.43 0 -34.53 -53.63 -27.11 0 27.49 -34.98 13.23 0c7.15,0 13.24,-2.23 17.46,-6.15 4.03,-3.75 6.42,-9.16 6.42,-15.73 0,-6.57 -2.39,-11.98 -6.42,-15.73 -4.22,-3.92 -10.31,-6.15 -17.46,-6.15l-47.49 0 0 132.37 -38.47 0 0 -167.35 89.96 0c17.61,0 32.26,5.78 42.61,15.7 10.53,10.1 16.5,24.39 16.5,41.16 0,14.85 -4.54,26.61 -11.59,35.35 -6.73,8.34 -15.72,13.88 -25.2,16.69z"/>
   <polygon class="fil1" points="363.1,129.66 235.92,181.17 237.14,117.26 364.31,66.23 "/>
  </g>
 </g>
</svg>
