<?xml version="1.0" encoding="UTF-8"?>
<!DOCTYPE svg PUBLIC "-//W3C//DTD SVG 1.0//EN" "http://www.w3.org/TR/2001/REC-SVG-20010904/DTD/svg10.dtd">
<!-- Creator: CorelDRAW 2017 -->
<svg xmlns="http://www.w3.org/2000/svg" xml:space="preserve" width="1202px" height="426px" version="1.0" style="shape-rendering:geometricPrecision; text-rendering:geometricPrecision; image-rendering:optimizeQuality; fill-rule:evenodd; clip-rule:evenodd"
viewBox="0 0 1202 426.4"
 xmlns:xlink="http://www.w3.org/1999/xlink">
 <defs>
  <style type="text/css">
   <![CDATA[
    .fil1 {fill:#69E071;fill-rule:nonzero}
    .fil0 {fill:url(#id0);fill-rule:nonzero}
    .fil2 {fill:url(#id1);fill-rule:nonzero}
   ]]>
  </style>
  <linearGradient id="id0" gradientUnits="userSpaceOnUse" x1="792.2" y1="36.6" x2="847.97" y2="283.35">
   <stop offset="0" style="stop-opacity:1; stop-color:#07AB5C"/>
   <stop offset="1" style="stop-opacity:1; stop-color:#00CCFF"/>
  </linearGradient>
  <linearGradient id="id1" gradientUnits="userSpaceOnUse" xlink:href="#id0" x1="8.2" y1="71.77" x2="278.14" y2="278.4">
  </linearGradient>
 </defs>
 <g id="Слой_x0020_1">
  <metadata id="CorelCorpID_0Corel-Layer"/>
  <g id="_2226817917264">
   <path class="fil0" d="M1120.34 226.49l34.61 0 0 -119.89 21.04 0 26.01 -29.18 -125.32 0 0 29.18 43.66 0 0 119.89zm-167.59 -11.76c8.57,6.16 19.53,10.32 31.1,12.42l72.07 -28.91c1.61,-4.37 2.47,-9.15 2.47,-14.28 0,-47.95 -63.34,-44.33 -63.34,-67.41 0,-9.05 7.24,-11.99 15.61,-11.99 12.21,0 24.43,3.62 38.23,10.41l0 -30.99c-9.05,-4.52 -22.85,-8.14 -39.36,-8.14 -33.03,0 -51.35,20.81 -51.35,43.65 0,45.92 63.34,42.76 63.34,67.41 0,9.73 -11.09,13.12 -21.27,13.12 -13.12,0 -24.43,-4.52 -34.38,-11.31l-13.12 26.02zm-123.18 11.76l100.11 0 0 -31.63 -65.5 0 0 -28.99 57.81 0 0 -30.35 -57.81 0 0 -26.48 39.94 0 26.01 -31.62 -100.56 0 0 149.07zm-110.77 1.13l29.86 0 61.3 -150.2 -37.1 0 -28.5 74.42c-4.07,10.41 -7.47,20.13 -10.41,28.73l-0.45 0c-2.94,-8.6 -6.33,-18.32 -10.41,-28.73l-28.5 -74.42 -37.1 0 61.31 150.2zm-80.92 -1.13l0 -149.07 -34.61 0 0 68.99c0,5.88 0,16.74 0.45,24.43l-0.45 0c-4.3,-6.33 -8.6,-11.99 -13.35,-18.09l-57.9 -75.33 -34.61 0 0 149.07 34.61 0 0 -75.78c0,-6.33 0,-16.29 -0.68,-21.26l0.45 0c4.98,6.56 9.27,12.44 14.02,18.54l59.95 78.5 32.12 0zm-209.02 0l34.62 0 0 -149.07 -34.37 0.16 -0.05 31.03 34.42 -0.25 -34.45 13.75 -0.17 104.38z"/>
   <path class="fil1" d="M1133.66 347.46l0 -44.57 5.2 0c6.79,0 11.99,0.91 15.84,3.17 7.01,4.07 10.18,11.31 10.18,19 0,9.5 -3.4,16.51 -10.64,19.91 -3.84,1.81 -8.82,2.49 -14.7,2.49l-5.88 0zm-34.61 76.68l34.61 0 0 -48.86 3.84 0c13.13,0 23.76,-1.81 32.35,-4.98 23.53,-8.82 30.99,-28.05 30.99,-45.24 0,-21.26 -9.27,-36.19 -26.01,-43.88 -9.28,-4.3 -20.81,-6.11 -34.16,-6.11l-41.62 0 0 149.07z"/>
   <path class="fil1" d="M999.97 426.4c27.83,0 48.64,-8.37 59.04,-26.92 4.75,-8.37 7.24,-19.45 7.24,-32.34l0 -93.17 -34.61 15.62 0 75.51c0,7.69 -1.55,14.5 -4.52,19.45 -5.17,8.62 -14.71,13.12 -27.15,13.12 -12.44,0 -21.94,-4.52 -27.14,-13.12 -2.94,-4.97 -4.53,-11.76 -4.53,-19.45l0 -91.13 -34.61 0 0 93.17c0,12.89 2.52,23.96 7.24,32.34 10.43,18.53 31.22,26.92 59.04,26.92z"/>
   <path class="fil1" d="M829.64 397.67c-23.53,0 -40.04,-16.06 -40.04,-47.73 0,-31.66 16.51,-47.73 40.04,-47.73 23.52,0 40.04,16.07 40.04,47.73 0,31.67 -16.52,47.73 -40.04,47.73zm0 28.73c45.47,0 76.91,-31.21 76.91,-76.46 0,-45.24 -31.44,-76.45 -76.91,-76.45 -45.47,0 -76.91,31.21 -76.91,76.45 0,45.25 31.44,76.46 76.91,76.46z"/>
   <path class="fil1" d="M529.41 376.29l0 18.22c-5.2,2.03 -12.9,3.16 -21.26,3.16 -29.64,0 -45.92,-19 -45.92,-46.82 0,-28.73 17.19,-48.64 51.12,-48.64 16.29,0 29.86,4.3 42.3,10.18l0 -31.89c-13.12,-4.3 -27.37,-7.01 -45.02,-7.01 -51.8,0 -85.27,34.15 -85.27,79.17 0,42.07 28.95,73.74 80.98,73.74 20.81,0 41.62,-4.52 57.68,-12.44l0 -37.67 0 -25.89 0 -5.73 -60.32 0 0 31.62 25.71 0z"/>
   <path class="fil2" d="M152.78 49.09l-1.08 -0.02 -2.09 0c-13.64,0 -26.61,2.7 -38.41,7.59 -12.24,5.07 -23.29,12.53 -32.58,21.82 -9.28,9.28 -16.75,20.33 -21.82,32.57 -4.88,11.8 -7.58,24.77 -7.58,38.42 0,13.64 2.7,26.62 7.58,38.42 5.07,12.24 12.54,23.29 21.82,32.57 9.29,9.29 20.34,16.75 32.58,21.82 11.8,4.89 24.77,7.58 38.41,7.58 13.65,0 26.62,-2.69 38.43,-7.58 12.24,-5.07 23.28,-12.53 32.57,-21.82 7.85,-7.85 14.4,-16.98 19.3,-27.04 2.37,-4.85 4.35,-9.91 5.92,-15.15l-68.21 29.65 1.21 -63.71 121.56 -52.84c8.39,54.07 4.03,114.87 -44.98,163.89 -13.77,13.76 -30.25,24.87 -48.61,32.48 -17.65,7.31 -36.96,11.34 -57.19,11.34 -20.21,0 -39.53,-4.03 -57.18,-11.34 -18.36,-7.61 -34.84,-18.72 -48.61,-32.48 -13.76,-13.77 -24.87,-30.25 -32.47,-48.6 -7.31,-17.65 -11.35,-36.97 -11.35,-57.19 0,-20.22 4.04,-39.54 11.35,-57.19 7.6,-18.35 18.71,-34.84 32.47,-48.6 13.77,-13.77 30.25,-24.88 48.61,-32.48 60.42,-25.03 128.59,-6.2 168.32,37.54l-50.87 20.31 -3.08 -2.14c-7.71,-5.35 -16.19,-9.64 -25.25,-12.68 -8.78,-2.94 -18.1,-4.7 -27.78,-5.09l-0.99 -0.05z"/>
   <path class="fil1" d="M695.71 371.99l33.93 52.15 -38.75 0 -30.81 -47.85 -24.19 0 24.53 -31.2 11.8 0c6.38,0 11.82,-1.99 15.58,-5.49 3.6,-3.35 5.73,-8.17 5.73,-14.04 0,-5.86 -2.13,-10.68 -5.73,-14.03 -3.76,-3.5 -9.2,-5.49 -15.58,-5.49l-42.36 0 0 118.1 -34.33 0 0 -149.3 80.26 0c15.72,0 28.79,5.15 38.02,14 9.4,9.01 14.72,21.76 14.72,36.72 0,13.25 -4.05,23.74 -10.34,31.54 -6,7.45 -14.02,12.38 -22.48,14.89z"/>
   <polygon class="fil1" points="323.97,115.68 210.49,161.64 211.58,104.62 325.05,59.09 "/>
  </g>
 </g>
</svg>
