<?xml version="1.0" encoding="UTF-8"?>
<!DOCTYPE svg PUBLIC "-//W3C//DTD SVG 1.0//EN" "http://www.w3.org/TR/2001/REC-SVG-20010904/DTD/svg10.dtd">
<!-- Creator: CorelDRAW 2017 -->
<svg xmlns="http://www.w3.org/2000/svg" xml:space="preserve" width="1388px" height="1277px" version="1.0" style="shape-rendering:geometricPrecision; text-rendering:geometricPrecision; image-rendering:optimizeQuality; fill-rule:evenodd; clip-rule:evenodd"
viewBox="0 0 1388 1277.13"
 xmlns:xlink="http://www.w3.org/1999/xlink">
 <defs>
  <style type="text/css">
   <![CDATA[
    .fil1 {fill:#69E071;fill-rule:nonzero}
    .fil0 {fill:url(#id0);fill-rule:nonzero}
   ]]>
  </style>
  <linearGradient id="id0" gradientUnits="userSpaceOnUse" x1="35.03" y1="306.46" x2="1187.7" y2="1188.81">
   <stop offset="0" style="stop-opacity:1; stop-color:#07AB5C"/>
   <stop offset="1" style="stop-opacity:1; stop-color:#00CCFF"/>
  </linearGradient>
 </defs>
 <g id="Слой_x0020_1">
  <metadata id="CorelCorpID_0Corel-Layer"/>
  <g id="_2226482258128">
   <path class="fil0" d="M652.39 209.64l-4.6 -0.12 -8.91 0.02c-58.26,0 -113.66,11.52 -164.06,32.39 -52.26,21.65 -99.45,53.53 -139.09,93.17 -39.65,39.64 -71.52,86.83 -93.17,139.09 -20.87,50.39 -32.39,105.8 -32.39,164.06 0,58.26 11.52,113.67 32.39,164.06 21.65,52.26 53.52,99.45 93.17,139.09 39.64,39.64 86.83,71.52 139.09,93.17 50.39,20.87 105.8,32.39 164.06,32.39 58.26,0 113.67,-11.52 164.06,-32.39 52.26,-21.65 99.45,-53.53 139.09,-93.17 33.51,-33.51 61.49,-72.5 82.44,-115.49 10.09,-20.69 18.55,-42.3 25.24,-64.67l-291.25 126.61 5.19 -272.05 519.06 -225.65c35.83,230.91 17.23,490.53 -192.08,699.85 -58.78,58.77 -129.17,106.21 -207.54,138.68 -75.37,31.22 -157.87,48.45 -244.21,48.45 -86.34,0 -168.84,-17.23 -244.21,-48.45 -78.37,-32.47 -148.76,-79.91 -207.54,-138.68 -58.78,-58.78 -106.21,-129.17 -138.68,-207.54 -31.22,-75.37 -48.45,-157.87 -48.45,-244.21 0,-86.34 17.23,-168.84 48.45,-244.21 32.47,-78.37 79.9,-148.76 138.68,-207.54 58.78,-58.77 129.17,-106.21 207.54,-138.68 258.01,-106.87 549.12,-26.48 718.78,160.31l-217.25 86.71 -13.13 -9.12c-32.92,-22.83 -69.16,-41.18 -107.83,-54.14 -37.5,-12.56 -77.3,-20.09 -118.6,-21.77l-4.25 -0.17z"/>
   <polygon class="fil1" points="1383.39,493.99 898.83,690.24 903.48,446.74 1388,252.34 "/>
  </g>
 </g>
</svg>
